<svg viewBox="0 0 300 79.9146728515625" preserveAspectRatio="xMidYMid meet" class="css-8aabad" id="ebagcafc"><defs id="SvgjsDefs1012"></defs><g id="SvgjsG1013" featurekey="symbolFeature-0" transform="matrix(0.8888888888888888,0,0,0.8888888888888888,-4.444444444444445,-4.487110985649957)" fill="#fff"><g xmlns="http://www.w3.org/2000/svg"><path d="M32.091,31.479l-12.37-14.746C12.96,22.899,8.076,31.07,6.054,40.336l19.001,3.35   C26.238,38.967,28.706,34.762,32.091,31.479z"></path><path d="M48.162,24.299V5.048c-9.641,0.389-18.479,3.789-25.628,9.312l12.384,14.759C38.69,26.382,43.227,24.65,48.162,24.299z"></path><path d="M94.628,44.467l-10.661-2.028l-8.377,4.763c0.102,0.906,0.155,1.822,0.155,2.752c0,4.036-0.96,7.839-2.609,11.239   l16.706,9.645C93.12,64.593,95,57.498,95,49.953C95,48.094,94.851,46.269,94.628,44.467z"></path><path d="M26.31,60.04c-1.322-3.097-2.055-6.508-2.055-10.087c0-0.896,0.047-1.778,0.135-2.65l-18.947-3.34   C5.182,45.927,5,47.918,5,49.953C5,56.649,6.5,62.98,9.124,68.69l11.594-0.531L26.31,60.04z"></path><path d="M77.463,14.36C70.316,8.837,61.474,5.437,51.84,5.048v19.251c4.928,0.352,9.465,2.083,13.237,4.817L77.463,14.36z"></path><path d="M50.001,75.697c-2.454,0-4.814-0.365-7.059-1.004l-6.598,18.136c4.306,1.372,8.89,2.123,13.657,2.123   c4.759,0,9.336-0.751,13.643-2.12l-6.599-18.135C54.801,75.336,52.441,75.697,50.001,75.697z"></path><path d="M60.5,73.442l6.592,18.126c8.66-3.56,15.935-9.746,20.891-17.562l-16.665-9.62C68.64,68.332,64.895,71.479,60.5,73.442z"></path><path d="M74.921,43.601l8.41-4.779l10.749,2.045c-1.947-9.488-6.916-17.854-13.812-24.14L67.896,31.473   C71.27,34.734,73.73,38.912,74.921,43.601z"></path><path d="M28.071,63.39l-5.398,7.893l-11.957,0.589c4.936,8.826,12.744,15.813,22.173,19.693l6.599-18.125   C34.742,71.31,30.773,67.787,28.071,63.39z"></path></g></g><g id="SvgjsG1014" featurekey="K5GtsI-0" transform="matrix(4.037141629065128,0,0,4.037141629065128,96.04360208904338,-13.222849774390767)" fill="#fff"><path d="M3.62 20 l-2.64 0 l0 -13.98 l10.06 0 l0 2.54 l-7.42 0 l0 3.82 l7.02 0 l0 2.44 l-7.02 0 l0 5.18 z M12.860000000000001 6 l2.64 0 l0 11.56 l7.2 0 l0 2.44 l-9.84 0 l0 -14 z M33.400000000000006 6.02 l2.62 0 l0 8.02 c0 4.14 -2.54 6.26 -6.06 6.26 c-3.36 0 -6.22 -2.04 -6.22 -6.26 l0 -8.02 l2.62 0 l0 8.02 c0 2.52 1.44 3.86 3.62 3.86 s3.42 -1.46 3.42 -3.86 l0 -8.02 z M43.980000000000004 11.22 l3.5 -5.22 l2.9 0 l0 0.12 l-4.74 6.8 l4.88 7 l0 0.08 l-2.96 0 l-3.58 -5.26 l-3.58 5.26 l-2.96 0 l0 -0.08 l4.86 -7 l-4.72 -6.8 l0 -0.12 l2.9 0 z"></path></g></svg>