
        <svg xmlns="http://www.w3.org/2000/svg" xmlns:xlink="http://www.w3.org/1999/xlink" version="1.1" width="3200" height="1048.7132297676885" viewBox="0 0 3200 1048.7132297676885">
			
			<g transform="scale(10) translate(10, 10)">
				<defs id="SvgjsDefs3268"/><g id="SvgjsG3269" featureKey="symbolFeature-0" transform="matrix(1.065005196158012,0,0,1.065005196158012,-13.199674458059816,-11.087769365337442)" fill="#000"><g xmlns="http://www.w3.org/2000/svg"><g><polygon points="54.644,56.782 35.043,56.782 29.789,76.381 49.394,76.381   "/></g><g><polygon points="29.789,76.381 16.071,76.381 12.394,90.102 26.115,90.102   "/></g><g><polygon points="72.04,43.063 58.319,43.063 54.644,56.782 68.363,56.782   "/></g><g><polygon points="60.892,33.458 51.288,33.458 48.716,43.063 58.319,43.063   "/></g><g><polygon points="78.988,17.134 69.384,17.134 66.81,26.739 76.416,26.739   "/></g><g><polygon points="37.616,47.18 28.013,47.18 25.438,56.782 35.043,56.782   "/></g><g><polygon points="87.511,10.411 80.79,10.411 78.988,17.134 85.71,17.134   "/></g><g><polygon points="80.562,36.341 73.842,36.341 72.04,43.063 78.762,43.063   "/></g><g><polygon points="53.089,26.735 46.37,26.735 44.565,33.458 51.288,33.458   "/></g></g></g><g id="SvgjsG3270" featureKey="K5GtsI-0" transform="matrix(4.037141629065128,0,0,4.037141629065128,96.04360208904338,-10.222849774390767)" fill="#000"><path d="M3.62 20 l-2.64 0 l0 -13.98 l10.06 0 l0 2.54 l-7.42 0 l0 3.82 l7.02 0 l0 2.44 l-7.02 0 l0 5.18 z M12.860000000000001 6 l2.64 0 l0 11.56 l7.2 0 l0 2.44 l-9.84 0 l0 -14 z M33.400000000000006 6.02 l2.62 0 l0 8.02 c0 4.14 -2.54 6.26 -6.06 6.26 c-3.36 0 -6.22 -2.04 -6.22 -6.26 l0 -8.02 l2.62 0 l0 8.02 c0 2.52 1.44 3.86 3.62 3.86 s3.42 -1.46 3.42 -3.86 l0 -8.02 z M43.980000000000004 11.22 l3.5 -5.22 l2.9 0 l0 0.12 l-4.74 6.8 l4.88 7 l0 0.08 l-2.96 0 l-3.58 -5.26 l-3.58 5.26 l-2.96 0 l0 -0.08 l4.86 -7 l-4.72 -6.8 l0 -0.12 l2.9 0 z"/></g>
			</g>
		</svg>
	